<?xml version="1.0" encoding="utf-8"?>
<svg viewBox="0 0 865 500" xmlns="http://www.w3.org/2000/svg">
  <rect width="865" height="500" style="fill: rgb(0, 121, 191);"/>
  <rect width="865" height="30" style="fill-opacity: 0.14902;"/>
  <g class="normal">
    <rect x="-35" y="60" width="180" height="285" rx="2.494" ry="2.494" style="fill: rgb(226, 228, 230);"/>
    <rect x="-30" y="80" width="170" height="40" rx="2.494" ry="2.494" style="fill: rgb(255, 255, 255);"/>
    <rect x="-30" y="125" width="170" height="50" rx="2.494" ry="2.494" style="fill: rgb(255, 255, 255);"/>
    <rect x="-30" y="180" width="170" height="30" rx="2.494" ry="2.494" style="fill: rgb(255, 255, 255);"/>
    <rect x="-30" y="215" width="170" height="50" rx="2.494" ry="2.494" style="fill: rgb(255, 255, 255);"/>
    <rect x="-30" y="270" width="170" height="50" rx="2.494" ry="2.494" style="fill: rgb(255, 255, 255);"/>
  </g>
  <g class="todo">
    <rect x="155" y="60" width="180" height="175" rx="2.494" ry="2.494" style="fill: rgb(226, 228, 230);"/>
    <rect x="160" y="80" width="170" height="20" rx="2.494" ry="2.494" style="fill: rgb(255, 255, 255);"/>
    <rect x="160" y="105" width="170" height="50" rx="2.494" ry="2.494" style="fill: rgb(255, 255, 255);"/>
    <rect x="160" y="160" width="170" height="50" rx="2.494" ry="2.494" style="fill: rgb(255, 255, 255);"/>
  </g>
  <g class="doing">
    <rect x="345" y="60" width="180" height="240" rx="2.494" ry="2.494" style="fill: rgb(226, 228, 230);"/>
    <rect x="350" y="80" width="170" height="50" rx="2.494" ry="2.494" style="fill: rgb(255, 255, 255);"/>
    <rect x="350" y="135" width="170" height="30" rx="2.494" ry="2.494" style="fill: rgb(255, 255, 255);"/>
    <rect x="350" y="170" width="170" height="50" rx="2.494" ry="2.494" style="fill: rgb(255, 255, 255);"/>
    <rect x="350" y="225" width="170" height="50" rx="2.494" ry="2.494" style="fill: rgb(255, 255, 255);"/>
  </g>
  <g class="done">
    <rect x="535" y="60" width="180" height="410" rx="2.494" ry="2.494" style="fill: rgb(226, 228, 230);"/>
    <rect x="540" y="80" width="170" height="30" rx="2.494" ry="2.494" style="fill: rgb(255, 255, 255);"/>
    <rect x="540" y="115" width="170" height="50" rx="2.494" ry="2.494" style="fill: rgb(255, 255, 255);"/>
    <rect x="540" y="170" width="170" height="50" rx="2.494" ry="2.494" style="fill: rgb(255, 255, 255);"/>
    <rect x="540" y="225" width="170" height="20" rx="2.494" ry="2.494" style="fill: rgb(255, 255, 255);"/>
    <rect x="540" y="250" width="170" height="50" rx="2.494" ry="2.494" style="fill: rgb(255, 255, 255);"/>
    <rect x="540" y="305" width="170" height="30" rx="2.494" ry="2.494" style="fill: rgb(255, 255, 255);"/>
    <rect x="540" y="340" width="170" height="50" rx="2.494" ry="2.494" style="fill: rgb(255, 255, 255);"/>
    <rect x="540" y="395" width="170" height="50" rx="2.494" ry="2.494" style="fill: rgb(255, 255, 255);"/>
  </g>
  <g>
    <rect x="650" y="30" width="215" height="470" style="fill: rgb(216, 216, 216);"/>
    <rect x="660" y="65" width="95" height="70" rx="5.159" ry="5.159" style="fill: rgb(0, 121, 191);"/>
    <rect x="760" y="65" width="95" height="70" rx="5.159" ry="5.159" style="fill: rgb(210, 144, 52);"/>
    <rect x="660" y="140" width="95" height="70" rx="5.159" ry="5.159" style="fill: rgb(81, 152, 57);"/>
    <rect x="760" y="140" width="95" height="70" rx="5.159" ry="5.159" style="fill: rgb(176, 70, 50);"/>
    <rect x="660" y="215" width="95" height="70" rx="5.159" ry="5.159" style="fill: rgb(137, 96, 158);"/>
    <rect x="760" y="215" width="95" height="70" rx="5.159" ry="5.159" style="fill: rgb(205, 90, 145);"/>
    <rect x="660" y="290" width="95" height="70" rx="5.159" ry="5.159" style="fill: rgb(75, 191, 107);"/>
    <rect x="760" y="290" width="95" height="70" rx="5.159" ry="5.159" style="fill: rgb(0, 174, 204);"/>
    <rect x="660" y="365" width="95" height="70" rx="5.159" ry="5.159" style="fill: rgb(131, 140, 145);"/>
  </g>
</svg>
