<?xml version="1.0" encoding="utf-8"?>
<svg viewBox="0 0 192 192" xmlns="http://www.w3.org/2000/svg" xmlns:bx="https://boxy-svg.com">
	<path d="M 29.363 17.04 L 150.809 17.04 L 17.04 150.809 L 17.04 29.363 C 17.04 22.557 22.557 17.04 29.363 17.04 Z M 174.959 162.636 C 174.959 169.441 169.441 174.959 162.636 174.959 L 41.219 174.959 L 174.959 41.219 Z" style="fill: rgb(95, 95, 95);"/>
	<path d="M 71.724 45.425 L 117.96 45.425 C 119.245 45.425 120.453 45.761 121.498 46.351 L 83.03 84.819 L 71.724 84.819 C 67.739 84.819 64.509 81.588 64.509 77.603 L 64.509 52.641 C 64.509 48.656 67.739 45.425 71.724 45.425 Z" style="fill: rgb(226, 228, 230);"/>
	<path d="M 17.04 45.425 L 48.522 45.425 C 52.489 45.425 55.705 48.641 55.705 52.608 L 55.705 108.379 C 55.705 112.346 52.489 115.561 48.522 115.561 L 17.04 115.561 Z" style="fill: rgb(226, 228, 230);"/>
	<path d="M 174.959 45.425 L 174.959 148.154 L 141.265 148.154 C 137.28 148.154 134.049 144.923 134.049 140.938 L 134.049 82.128 L 170.752 45.425 Z" style="fill: rgb(226, 228, 230);"/>
	<line style="stroke: rgb(255, 0, 0); stroke-linecap: round; stroke-width: 18px;" x1="175.801" y1="15.449" x2="14.29" y2="178.018" transform="matrix(0.999999, -0.001671, 0.001671, 0.999999, -0.160236, 0.160657)"/>
</svg>
