<svg xmlns="http://www.w3.org/2000/svg" width="18" height="18" viewBox="-40 -100 1100 1100" version="1.1"><path fill="#fff" d="M630 116q-35 -12 -71.5 -17t-74.5 -2l-34 -129q-4 -13 -15.5 -20t-24.5 -3l-61 16q-13 4 -19.5 15.5t-3.5 24.5l35 129q-35 16 -64 38.5t-53 50.5l-116 -67q-11 -6 -24 -2.5t-19 14.5l-32 55q-7 12 -3.5 25t14.5 19l116 67q-12 34 -17 71t-2 75l-129 34q-13 4 -19.5 15.5 t-3.5 23.5l17 62q3 13 14.5 19.5t24.5 3.5l129 -35q16 34 39 63.5t50 53.5l-66 115q-7 12 -3.5 25t14.5 19l56 32q11 7 24 3.5t19 -15.5l67 -115q35 12 71.5 17t74.5 2l34 129q4 13 15.5 19.5t24.5 3.5l61 -17q13 -3 19.5 -14.5t3.5 -24.5l-35 -129q35 -17 64 -39.5 t53 -50.5l116 67q11 7 24 3.5t19 -15.5l32 -55q7 -11 3.5 -24t-14.5 -20l-116 -67q12 -34 17 -70.5t2 -74.5l129 -35q13 -3 19.5 -14.5t3.5 -24.5l-17 -62q-3 -13 -14.5 -19.5t-24.5 -2.5l-129 34q-16 -34 -39 -63t-50 -53l66 -116q7 -11 3.5 -24t-14.5 -20l-56 -32 q-11 -6 -24 -2.5t-19 14.5l-67 116v0zM454 231q45 -12 89 -5.5t81 28t64.5 56.5t39.5 80t5.5 88.5t-28 81t-56 65t-79.5 39.5t-89 5.5t-81 -28t-64.5 -56t-39.5 -79.5t-5.5 -89t28 -81.5t56 -65t79.5 -39.5v0z" /></svg>
