<?xml version="1.0" encoding="utf-8"?>
<svg width="18" height="18" viewBox="-40 -100 1100 1100" version="1.1" xmlns="http://www.w3.org/2000/svg">
  <path fill="#fff" d="M 630 779.493 C 606.667 787.493 582.833 793.159 558.5 796.493 C 534.167 799.826 509.333 800.493 484 798.493 L 450 927.493 C 447.333 936.159 442.167 942.826 434.5 947.493 C 426.833 952.159 418.667 953.159 410 950.493 L 349 934.493 C 340.333 931.826 333.833 926.659 329.5 918.993 C 325.167 911.326 324 903.159 326 894.493 L 361 765.493 C 337.667 754.826 316.333 741.993 297 726.993 C 277.667 711.993 260 695.159 244 676.493 L 128 743.493 C 120.667 747.493 112.667 748.326 104 745.993 C 95.333 743.659 89 738.826 85 731.493 L 53 676.493 C 48.333 668.493 47.167 660.159 49.5 651.493 C 51.833 642.826 56.667 636.493 64 632.493 L 180 565.493 C 172 542.826 166.333 519.159 163 494.493 C 159.667 469.826 159 444.826 161 419.493 L 32 385.493 C 23.333 382.826 16.833 377.659 12.5 369.993 C 8.167 362.326 7 354.493 9 346.493 L 26 284.493 C 28 275.826 32.833 269.326 40.5 264.993 C 48.167 260.659 56.333 259.493 65 261.493 L 194 296.493 C 204.667 273.826 217.667 252.659 233 232.993 C 248.333 213.326 265 195.493 283 179.493 L 217 64.493 C 212.333 56.493 211.167 48.159 213.5 39.493 C 215.833 30.826 220.667 24.493 228 20.493 L 284 -11.507 C 291.333 -16.174 299.333 -17.341 308 -15.007 C 316.667 -12.674 323 -7.507 327 0.493 L 394 115.493 C 417.333 107.493 441.167 101.826 465.5 98.493 C 489.833 95.159 514.667 94.493 540 96.493 L 574 -32.507 C 576.667 -41.174 581.833 -47.674 589.5 -52.007 C 597.167 -56.341 605.333 -57.507 614 -55.507 L 675 -38.507 C 683.667 -36.507 690.167 -31.674 694.5 -24.007 C 698.833 -16.341 700 -8.174 698 0.493 L 663 129.493 C 686.333 140.826 707.667 153.993 727 168.993 C 746.333 183.993 764 200.826 780 219.493 L 896 152.493 C 903.333 147.826 911.333 146.659 920 148.993 C 928.667 151.326 935 156.493 939 164.493 L 971 219.493 C 975.667 226.826 976.833 234.826 974.5 243.493 C 972.167 252.159 967.333 258.826 960 263.493 L 844 330.493 C 852 353.159 857.667 376.659 861 400.993 C 864.333 425.326 865 450.159 863 475.493 L 992 510.493 C 1000.667 512.493 1007.167 517.326 1011.5 524.993 C 1015.833 532.659 1017 540.826 1015 549.493 L 998 611.493 C 996 620.159 991.167 626.659 983.5 630.993 C 975.833 635.326 967.667 636.159 959 633.493 L 830 599.493 C 819.333 622.159 806.333 643.159 791 662.493 C 775.667 681.826 759 699.493 741 715.493 L 807 831.493 C 811.667 838.826 812.833 846.826 810.5 855.493 C 808.167 864.159 803.333 870.826 796 875.493 L 740 907.493 C 732.667 911.493 724.667 912.326 716 909.993 C 707.333 907.659 701 902.826 697 895.493 L 630 779.493 L 630 779.493 Z M 454 664.493 C 484 672.493 513.667 674.326 543 669.993 C 572.333 665.659 599.333 656.326 624 641.993 C 648.667 627.659 670.167 608.826 688.5 585.493 C 706.833 562.159 720 535.493 728 505.493 C 736 475.493 737.833 445.993 733.5 416.993 C 729.167 387.993 719.833 360.993 705.5 335.993 C 691.167 310.993 672.5 289.326 649.5 270.993 C 626.5 252.659 600 239.493 570 231.493 C 540 223.493 510.333 221.659 481 225.993 C 451.667 230.326 424.667 239.659 400 253.993 C 375.333 268.326 353.833 286.993 335.5 309.993 C 317.167 332.993 304 359.493 296 389.493 C 288 419.493 286.167 449.159 290.5 478.493 C 294.833 507.826 304.167 534.993 318.5 559.993 C 332.833 584.993 351.5 606.659 374.5 624.993 C 397.5 643.326 424 656.493 454 664.493 L 454 664.493 Z" transform="matrix(-1, 0, 0, -1, 1024.000053, 895.492599)"/>
</svg>