<?xml version="1.0" encoding="UTF-8"?>
<svg width="14px" height="14px" viewBox="0 0 14 14" version="1.1" xmlns="http://www.w3.org/2000/svg" xmlns:xlink="http://www.w3.org/1999/xlink">
    <!-- Generator: Sketch 49.3 (51167) - http://www.bohemiancoding.com/sketch -->
    <title>Icon/Expand-hover</title>
    <desc>Created with Sketch.</desc>
    <defs></defs>
    <g id="Open-Card" stroke="none" stroke-width="1" fill="none" fill-rule="evenodd">
        <g id="Icon/Expand-hover" transform="translate(-5.000000, -5.000000)">
            <rect id="bounds" x="0" y="0" width="24" height="24"></rect>
            <g id="expand" transform="translate(11.999501, 11.999501) rotate(45.000000) translate(-11.999501, -11.999501) translate(8.999501, 2.999501)" fill="#fff">
                <path d="M4,4 L4,6 C4,6.55228475 3.55228475,7 3,7 C2.44771525,7 2,6.55228475 2,6 L2,4 L1,4 C0.723857625,4 0.5,3.77614237 0.5,3.5 C0.5,3.39181489 0.535088936,3.28654809 0.6,3.2 L2.6,0.533333333 C2.76568542,0.312419433 3.0790861,0.267647908 3.3,0.433333333 C3.33790283,0.461760458 3.37157288,0.4954305 3.4,0.533333333 L5.4,3.2 C5.56568542,3.4209139 5.5209139,3.73431458 5.3,3.9 C5.21345191,3.96491106 5.10818511,4 5,4 L4,4 Z" id="Combined-Shape"></path>
                <path d="M4,13.6666961 L4,15.6666961 C4,16.2189808 3.55228475,16.6666961 3,16.6666961 C2.44771525,16.6666961 2,16.2189808 2,15.6666961 L2,13.6666961 L1,13.6666961 C0.723857625,13.6666961 0.5,13.4428385 0.5,13.1666961 C0.5,13.058511 0.535088936,12.9532442 0.6,12.8666961 L2.6,10.2000294 C2.76568542,9.97911553 3.0790861,9.934344 3.3,10.1000294 C3.33790283,10.1284566 3.37157288,10.1621266 3.4,10.2000294 L5.4,12.8666961 C5.56568542,13.08761 5.5209139,13.4010107 5.3,13.5666961 C5.21345191,13.6316072 5.10818511,13.6666961 5,13.6666961 L4,13.6666961 Z" id="Combined-Shape" transform="translate(3.000015, 13.833348) scale(1, -1) translate(-3.000015, -13.833348) "></path>
            </g>
            <g id="expand" transform="translate(11.999501, 11.999501) rotate(-45.000000) translate(-11.999501, -11.999501) translate(8.999501, 2.999501)" fill="#fff">
                <path d="M4,4 L4,6 C4,6.55228475 3.55228475,7 3,7 C2.44771525,7 2,6.55228475 2,6 L2,4 L1,4 C0.723857625,4 0.5,3.77614237 0.5,3.5 C0.5,3.39181489 0.535088936,3.28654809 0.6,3.2 L2.6,0.533333333 C2.76568542,0.312419433 3.0790861,0.267647908 3.3,0.433333333 C3.33790283,0.461760458 3.37157288,0.4954305 3.4,0.533333333 L5.4,3.2 C5.56568542,3.4209139 5.5209139,3.73431458 5.3,3.9 C5.21345191,3.96491106 5.10818511,4 5,4 L4,4 Z" id="Combined-Shape"></path>
                <path d="M4,14.6666961 L4,16.6666961 C4,17.2189808 3.55228475,17.6666961 3,17.6666961 C2.44771525,17.6666961 2,17.2189808 2,16.6666961 L2,14.6666961 L1,14.6666961 C0.723857625,14.6666961 0.5,14.4428385 0.5,14.1666961 C0.5,14.058511 0.535088936,13.9532442 0.6,13.8666961 L2.6,11.2000294 C2.76568542,10.9791155 3.0790861,10.934344 3.3,11.1000294 C3.33790283,11.1284566 3.37157288,11.1621266 3.4,11.2000294 L5.4,13.8666961 C5.56568542,14.08761 5.5209139,14.4010107 5.3,14.5666961 C5.21345191,14.6316072 5.10818511,14.6666961 5,14.6666961 L4,14.6666961 Z" id="Combined-Shape" transform="translate(3.000015, 14.333348) scale(1, -1) translate(-3.000015, -14.333348) "></path>
            </g>
        </g>
    </g>
</svg>
