<?xml version="1.0" encoding="utf-8"?>
<svg width="18" height="18" viewBox="-40 -100 1100 1100" version="1.1" xmlns="http://www.w3.org/2000/svg">
  <path fill="#474747" d="M 308 787 C 320.667 799.667 335.833 806 353.5 806 C 371.167 806 386.333 799.667 399 787 L 987 199 C 999.667 186.333 1006 171.167 1006 153.5 C 1006 135.833 999.667 121 987 109 C 974.333 96.333 959.167 90 941.5 90 C 923.833 90 909 96.333 897 109 L 354 652 L 127 425 C 115 413 100.167 407 82.5 407 C 64.833 407 49.667 413 37 425 C 24.333 437.667 18 452.833 18 470.5 C 18 488.167 24.333 503.333 37 516 L 308 787 L 308 787 Z"/>
</svg>
